<mxfile host="Electron" modified="2025-02-10T19:49:18.911Z" agent="Mozilla/5.0 (X11; Linux x86_64) AppleWebKit/537.36 (KHTML, like Gecko) draw.io/22.1.2 Chrome/114.0.5735.289 Electron/25.9.4 Safari/537.36" etag="RAjVUfE62CQNLd_wft4y" version="22.1.2" type="device">
  <diagram name="Page-1" id="ZNvYLam7C2BhEpcPI436">
    <mxGraphModel dx="644" dy="563" grid="1" gridSize="10" guides="1" tooltips="1" connect="1" arrows="1" fold="1" page="1" pageScale="1" pageWidth="583" pageHeight="413" math="0" shadow="0">
      <root>
        <mxCell id="0" />
        <mxCell id="1" parent="0" />
        <mxCell id="sJoSy0D1iKyAYKeZLXCW-10" style="edgeStyle=orthogonalEdgeStyle;rounded=0;orthogonalLoop=1;jettySize=auto;html=1;entryX=0;entryY=0.5;entryDx=0;entryDy=0;exitX=0.875;exitY=0.5;exitDx=0;exitDy=0;exitPerimeter=0;curved=1;" edge="1" parent="1" source="sJoSy0D1iKyAYKeZLXCW-2" target="sJoSy0D1iKyAYKeZLXCW-4">
          <mxGeometry relative="1" as="geometry" />
        </mxCell>
        <mxCell id="sJoSy0D1iKyAYKeZLXCW-11" style="edgeStyle=orthogonalEdgeStyle;rounded=0;orthogonalLoop=1;jettySize=auto;html=1;exitX=0.875;exitY=0.5;exitDx=0;exitDy=0;exitPerimeter=0;entryX=0;entryY=0.5;entryDx=0;entryDy=0;curved=1;" edge="1" parent="1" source="sJoSy0D1iKyAYKeZLXCW-2" target="sJoSy0D1iKyAYKeZLXCW-8">
          <mxGeometry relative="1" as="geometry" />
        </mxCell>
        <mxCell id="sJoSy0D1iKyAYKeZLXCW-12" style="edgeStyle=orthogonalEdgeStyle;rounded=0;orthogonalLoop=1;jettySize=auto;html=1;exitX=0.875;exitY=0.5;exitDx=0;exitDy=0;exitPerimeter=0;entryX=0;entryY=0.5;entryDx=0;entryDy=0;curved=1;" edge="1" parent="1" source="sJoSy0D1iKyAYKeZLXCW-2" target="sJoSy0D1iKyAYKeZLXCW-7">
          <mxGeometry relative="1" as="geometry" />
        </mxCell>
        <mxCell id="sJoSy0D1iKyAYKeZLXCW-2" value="" style="ellipse;shape=cloud;whiteSpace=wrap;html=1;" vertex="1" parent="1">
          <mxGeometry x="166" width="226" height="170" as="geometry" />
        </mxCell>
        <mxCell id="sJoSy0D1iKyAYKeZLXCW-1" value="" style="shape=mxgraph.signs.travel.book_and_souvenir_shop;html=1;pointerEvents=1;fillColor=#000000;strokeColor=none;verticalLabelPosition=bottom;verticalAlign=top;align=center;" vertex="1" parent="1">
          <mxGeometry x="230" y="39" width="98" height="92" as="geometry" />
        </mxCell>
        <mxCell id="sJoSy0D1iKyAYKeZLXCW-3" value="Publisher" style="ellipse;whiteSpace=wrap;html=1;aspect=fixed;" vertex="1" parent="1">
          <mxGeometry x="80" y="140" width="80" height="80" as="geometry" />
        </mxCell>
        <mxCell id="sJoSy0D1iKyAYKeZLXCW-4" value="Subscriber" style="ellipse;whiteSpace=wrap;html=1;aspect=fixed;" vertex="1" parent="1">
          <mxGeometry x="440" y="140" width="80" height="80" as="geometry" />
        </mxCell>
        <mxCell id="sJoSy0D1iKyAYKeZLXCW-7" value="Subscriber" style="ellipse;whiteSpace=wrap;html=1;aspect=fixed;" vertex="1" parent="1">
          <mxGeometry x="440" y="320" width="80" height="80" as="geometry" />
        </mxCell>
        <mxCell id="sJoSy0D1iKyAYKeZLXCW-8" value="Subscriber" style="ellipse;whiteSpace=wrap;html=1;aspect=fixed;" vertex="1" parent="1">
          <mxGeometry x="440" y="230" width="80" height="80" as="geometry" />
        </mxCell>
        <mxCell id="sJoSy0D1iKyAYKeZLXCW-9" style="edgeStyle=orthogonalEdgeStyle;rounded=0;orthogonalLoop=1;jettySize=auto;html=1;entryX=0.088;entryY=0.491;entryDx=0;entryDy=0;entryPerimeter=0;curved=1;exitX=0.5;exitY=0;exitDx=0;exitDy=0;" edge="1" parent="1" source="sJoSy0D1iKyAYKeZLXCW-3" target="sJoSy0D1iKyAYKeZLXCW-2">
          <mxGeometry relative="1" as="geometry" />
        </mxCell>
      </root>
    </mxGraphModel>
  </diagram>
</mxfile>
